# xmcd
#
# Track frame offsets: 
#        150
#        12740
#        26311
#        38876
#        51825
#        65322
#        78464
#        91679
#        105458
#        118885
#        131396
#        142847
#
# Disc length: 2079 seconds
#
# Revision: 0
# Processed by: cddbd v1.5.2PL0 Copyright (c) Steve Scherf et al.
# Submitted via: ExactAudioCopy v0.99pb5
#
DISCID=93081d0c
DTITLE=B.B. King - Singin' the Blues
DYEAR=1956
DGENRE=Blues
TTITLE0=Please Love Me
TTITLE1=You Upset Me Baby
TTITLE2=Everyday (I Have the Blues)
TTITLE3=Bad Luck
TTITLE4=3 O'Clock Blues
TTITLE5=Blind Love
TTITLE6=Woke Up This Morning
TTITLE7=You Know I Love You
TTITLE8=Sweet Little Angel
TTITLE9=Ten Long Years
TTITLE10=Did You Ever Love a Woman
TTITLE11=Crying Won't Help You
EXTD=
EXTT0=
EXTT1=
EXTT2=
EXTT3=
EXTT4=
EXTT5=
EXTT6=
EXTT7=
EXTT8=
EXTT9=
EXTT10=
EXTT11=
PLAYORDER=
